<?xml version="1.0" encoding="UTF-8" standalone="no"?>
<!-- Created with Inkscape (http://www.inkscape.org/) -->

<svg
   width="512"
   height="512"
   viewBox="0 0 135.46667 135.46667"
   version="1.1"
   id="svg1"
   xml:space="preserve"
   inkscape:version="1.4.3 (0d15f75042, 2025-12-25)"
   sodipodi:docname="drawing.svg"
   xmlns:inkscape="http://www.inkscape.org/namespaces/inkscape"
   xmlns:sodipodi="http://sodipodi.sourceforge.net/DTD/sodipodi-0.dtd"
   xmlns="http://www.w3.org/2000/svg"
   xmlns:svg="http://www.w3.org/2000/svg"><sodipodi:namedview
     id="namedview1"
     pagecolor="#ffffff"
     bordercolor="#000000"
     borderopacity="0.25"
     inkscape:showpageshadow="2"
     inkscape:pageopacity="0.0"
     inkscape:pagecheckerboard="0"
     inkscape:deskcolor="#d1d1d1"
     inkscape:document-units="px"
     showguides="true"
     inkscape:zoom="0.91452893"
     inkscape:cx="241.10774"
     inkscape:cy="238.37409"
     inkscape:window-width="1366"
     inkscape:window-height="731"
     inkscape:window-x="0"
     inkscape:window-y="0"
     inkscape:window-maximized="1"
     inkscape:current-layer="layer1" /><defs
     id="defs1" /><g
     inkscape:label="Layer 1"
     inkscape:groupmode="layer"
     id="layer1"><g
       id="g26"><g
         id="g25"
         transform="translate(-2.3144885,-0.28931107)"><path
           style="fill:#d34516;fill-opacity:1;stroke-width:0.512018"
           d="m 123.58793,65.12197 -4.6399,-2.874468 c -0.0389,-0.451599 -0.083,-0.902175 -0.1321,-1.352751 l 3.99527,-3.719809 a 1.5908391,1.5908391 0 0 0 0.47771,-1.479731 1.5836708,1.5836709 0 0 0 -1.00713,-1.183785 l -5.10482,-1.902146 c -0.12801,-0.441871 -0.26215,-0.88067 -0.39989,-1.321005 l 3.18168,-4.41769 a 1.5944232,1.5944232 0 0 0 -0.30311,-2.182731 1.6046636,1.6046636 0 0 0 -0.7327,-0.326155 l -5.37977,-0.875039 a 41.406362,41.406363 0 0 0 -0.64668,-1.204778 l 2.26158,-4.966572 a 1.5974953,1.5974953 0 0 0 -0.12442,-1.553973 1.5903271,1.5903271 0 0 0 -1.38501,-0.709145 l -5.46374,0.190471 a 43.599334,43.599335 0 0 0 -0.86275,-1.046565 l 1.25752,-5.315256 a 1.6000554,1.6000554 0 0 0 -1.92621,-1.926723 l -5.3168,1.257516 a 45.56753,45.567531 0 0 0 -1.0481,-0.862238 l 0.19099,-5.463742 a 1.5923751,1.5923752 0 0 0 -0.709152,-1.384496 1.6010794,1.6010795 0 0 0 -1.55346,-0.125957 l -4.95684,2.261583 c -0.4004,-0.219656 -0.80234,-0.437263 -1.20478,-0.647703 l -0.87709,-5.379258 a 1.5862309,1.586231 0 0 0 -0.96618,-1.215019 1.5913511,1.5913511 0 0 0 -1.54322,0.179207 l -4.41769,3.181166 c -0.43521,-0.138244 -0.87196,-0.271369 -1.31076,-0.398349 l -1.90266,-5.104818 a 1.5928872,1.5928872 0 0 0 -1.18327,-1.008675 1.6046636,1.6046636 0 0 0 -1.47973,0.477713 l -3.72032,3.994762 a 47.999614,47.999615 0 0 0 -1.35327,-0.1321 l -2.87446,-4.650145 a 1.6000554,1.6000554 0 0 0 -1.36351,-0.756763 c -0.5581,0 -1.06755,0.28673 -1.35275,0.756763 l -2.87498,4.649633 a 47.781495,47.781495 0 0 0 -1.35275,0.132612 l -3.72032,-3.994762 a 1.6026155,1.6026155 0 0 0 -1.47973,-0.477713 1.5903271,1.5903271 0 0 0 -1.18379,1.008675 l -1.90214,5.104818 c -0.4388,0.126468 -0.87555,0.259081 -1.31077,0.398349 l -4.41769,-3.181166 a 1.587767,1.587767 0 0 0 -1.54322,-0.179207 1.6010794,1.6010795 0 0 0 -0.96566,1.214507 l -0.87709,5.379258 c -0.40449,0.209928 -0.80643,0.425999 -1.20478,0.647703 l -4.95684,-2.261583 a 1.6000554,1.6000554 0 0 0 -2.26312,1.510453 l 0.19047,5.46323 c -0.35329,0.283146 -0.703,0.5709 -1.04861,0.86275 l -5.31628,-1.257516 a 1.6092717,1.6092718 0 0 0 -1.50021,0.425999 1.5995434,1.5995434 0 0 0 -0.42651,1.500212 l 1.24727,5.31628 a 48.076929,48.07693 0 0 0 -0.86019,1.046053 l -5.46425,-0.190471 a 1.6067116,1.6067117 0 0 0 -1.3845,0.709145 1.6005674,1.6005675 0 0 0 -0.12595,1.553973 l 2.26209,4.966572 c -0.22017,0.398862 -0.43777,0.800284 -0.64821,1.204778 l -5.37977,0.875551 a 1.5857189,1.5857189 0 0 0 -1.21502,0.965665 1.5959593,1.5959593 0 0 0 0.1792,1.542709 l 3.18168,4.417689 a 45.63102,45.631021 0 0 0 -0.39937,1.321006 l -5.10482,1.902146 a 1.5959593,1.5959593 0 0 0 -0.52994,2.663516 l 3.99528,3.719809 c -0.0502,0.450064 -0.0942,0.901152 -0.1321,1.352751 l -4.63991,2.874468 a 1.5985194,1.5985194 0 0 0 -0.75727,1.364015 c 0,0.559123 0.28673,1.067045 0.75676,1.352751 l 4.6399,2.874468 c 0.0379,0.451599 0.0819,0.902175 0.13211,1.35275 l -3.99528,3.719809 a 1.5959593,1.5959593 0 0 0 0.52943,2.663005 l 5.10481,1.902657 a 56.32195,56.321951 0 0 0 0.39938,1.321006 l -3.18066,4.417177 a 1.5933992,1.5933992 0 0 0 0.30721,2.186316 c 0.21454,0.168966 0.46901,0.280074 0.73885,0.322571 l 5.37977,0.875039 c 0.20839,0.405518 0.42497,0.806939 0.6477,1.204777 l -2.26158,4.956332 a 1.6005674,1.6005675 0 0 0 1.51045,2.263118 l 5.45299,-0.191494 c 0.28314,0.353292 0.5709,0.702488 0.86275,1.0481 l -1.24677,5.316275 a 1.5821348,1.5821348 0 0 0 0.42549,1.48997 1.5959593,1.5959593 0 0 0 1.50073,0.42498 l 5.31679,-1.24728 a 42.122675,42.122675 0 0 0 1.0481,0.86019 l -0.18996,5.46374 a 1.5923751,1.5923752 0 0 0 0.70914,1.3845 1.6000554,1.6000554 0 0 0 1.55347,0.12339 l 4.95684,-2.26107 c 0.39886,0.22119 0.80028,0.43727 1.20478,0.6477 l 0.87708,5.37875 a 1.6113198,1.6113198 0 0 0 0.96618,1.22628 1.5928872,1.5928872 0 0 0 1.54322,-0.17869 l 4.41769,-3.18117 c 0.43675,0.13876 0.87555,0.27393 1.32101,0.40091 l 1.90265,5.10431 a 1.5933992,1.5933992 0 0 0 1.18379,1.00714 1.5933992,1.5933992 0 0 0 1.47973,-0.47772 l 3.72032,-3.99476 c 0.44904,0.0517 0.90166,0.0952 1.35275,0.13517 l 2.87498,4.6394 a 1.5974953,1.5974953 0 0 0 1.35275,0.75676 1.6205361,1.6205361 0 0 0 1.36351,-0.75676 l 2.87446,-4.6394 c 0.45263,-0.0399 0.90371,-0.0834 1.35327,-0.13517 l 3.71981,3.99476 a 1.5903271,1.5903271 0 0 0 1.47973,0.47772 1.5898151,1.5898151 0 0 0 1.18378,-1.00714 l 1.90266,-5.10431 c 0.44187,-0.12698 0.88016,-0.26215 1.32101,-0.40091 l 4.4182,3.18117 a 1.5974953,1.5974953 0 0 0 2.50888,-1.04708 l 0.87709,-5.37926 c 0.40603,-0.21043 0.80745,-0.42907 1.20478,-0.6477 l 4.95684,2.26107 a 1.6026155,1.6026155 0 0 0 1.55397,-0.12339 1.6005674,1.6005675 0 0 0 0.709152,-1.3845 l -0.19047,-5.46374 a 41.879978,41.879979 0 0 0 1.04759,-0.86019 l 5.31628,1.24728 a 1.5990314,1.5990314 0 0 0 1.92672,-1.91495 l -1.24728,-5.315763 a 43.310556,43.310557 0 0 0 0.86019,-1.048612 l 5.46426,0.191494 a 1.589303,1.5893031 0 0 0 1.3845,-0.709144 1.5964713,1.5964713 0 0 0 0.12493,-1.553974 l -2.26158,-4.956332 c 0.22016,-0.398862 0.43623,-0.800283 0.64667,-1.204777 l 5.37977,-0.875039 a 1.5770146,1.5770146 0 0 0 1.21502,-0.965665 1.5923751,1.5923752 0 0 0 -0.1792,-1.543222 l -3.18168,-4.417177 c 0.13927,-0.438799 0.27239,-0.879134 0.39988,-1.321006 l 5.10482,-1.902657 a 1.5918631,1.5918632 0 0 0 1.00714,-1.183273 1.5908391,1.5908391 0 0 0 -0.47771,-1.479732 l -3.99528,-3.719809 c 0.0492,-0.450575 0.0932,-0.901663 0.1321,-1.35275 l 4.63991,-2.874468 a 1.5923751,1.5923752 0 0 0 0.75676,-1.352751 1.61644,1.61644 0 0 0 -0.75574,-1.363503 z"
           id="path15" /><text
           xml:space="preserve"
           style="font-style:normal;font-variant:normal;font-weight:normal;font-stretch:normal;font-size:63.4723px;font-family:Inter;-inkscape-font-specification:'Inter, Normal';font-variant-ligatures:normal;font-variant-caps:normal;font-variant-numeric:normal;font-variant-east-asian:normal;writing-mode:lr-tb;direction:ltr;fill:#ffffff;fill-opacity:1;stroke:#ffffff;stroke-width:5.28937;stroke-opacity:1"
           x="36.320015"
           y="76.404045"
           id="text17"
           transform="scale(0.79469425,1.2583456)"><tspan
             sodipodi:role="line"
             id="tspan17"
             style="font-style:normal;font-variant:normal;font-weight:normal;font-stretch:normal;font-size:63.4723px;font-family:Inter;-inkscape-font-specification:'Inter, Normal';font-variant-ligatures:normal;font-variant-caps:normal;font-variant-numeric:normal;font-variant-east-asian:normal;fill:#ffffff;fill-opacity:1;stroke:#ffffff;stroke-width:5.28937;stroke-opacity:1"
             x="36.320015"
             y="76.404045">KM</tspan></text></g><path
         fill="#000000"
         d="m 66.412376,31.252472 8.484479,-11.64314 -16.525276,0.0195 z"
         id="path1"
         style="fill:#ffffff;stroke-width:0.160996"
         sodipodi:nodetypes="cccc" /><path
         fill="#000000"
         d="m 58.557967,114.51182 14.864983,0.0461 -7.70549,-13.36903 z"
         id="path1-0"
         style="fill:#ffffff;stroke-width:0.164948"
         sodipodi:nodetypes="cccc" /><path
         fill="#000000"
         d="m 17.814019,58.699297 0.09596,13.998535 9.705151,-7.599844 z"
         id="path1-0-4"
         style="fill:#ffffff;stroke-width:0.140223"
         sodipodi:nodetypes="cccc" /><path
         fill="#000000"
         d="m 104.64009,67.797477 10.20889,5.668872 0.006,-12.328264 z"
         id="path1-0-4-7"
         style="fill:#ffffff;stroke-width:0.13462"
         sodipodi:nodetypes="cccc" /></g></g></svg>
